<svg width="47" height="47" viewBox="0 0 47 47" fill="none" xmlns="http://www.w3.org/2000/svg">
<path d="M23.5 0C24.6987 7.65145 25.921 11.5336 29.8471 17.1529C34.9841 21.7225 39.3914 22.2367 47 23.5C40.0076 25.5963 35.9162 26.5478 29.8471 29.8471C26.098 37.5563 25.2358 41.1849 23.5 47C22.3897 41.7303 21.4996 38.4981 17.1529 29.8471C11.1034 26.0747 7.35072 24.6791 0 23.5C6.72201 22.2264 10.4673 20.9018 17.1529 17.1529C20.6361 12.5393 21.8874 8.51037 23.5 0Z" fill="#222B21"/>
<path d="M34.8333 0C35.2329 2.55048 35.6403 3.84454 36.949 5.71762C38.6614 7.24084 40.1305 7.41223 42.6667 7.83333C40.3359 8.53211 38.9721 8.84927 36.949 9.94905C35.6993 12.5188 35.4119 13.7283 34.8333 15.6667C34.4632 13.9101 34.1665 12.8327 32.7176 9.94905C30.7011 8.69158 29.4502 8.22638 27 7.83333C29.2407 7.4088 30.4891 6.96728 32.7176 5.71762C33.8787 4.17976 34.2958 2.83679 34.8333 0Z" fill="#222B21"/>
<path d="M23.75 12C24.3493 15.8257 24.9605 17.7668 26.9236 20.5764C29.492 22.8613 31.6957 23.1183 35.5 23.75C32.0038 24.7982 29.9581 25.2739 26.9236 26.9236C25.049 30.7781 24.6179 32.5925 23.75 35.5C23.1948 32.8651 22.7498 31.2491 20.5764 26.9236C17.5517 25.0374 15.6754 24.3396 12 23.75C15.361 23.1132 17.2336 22.4509 20.5764 20.5764C22.318 18.2696 22.9437 16.2552 23.75 12Z" fill="white"/>
</svg>
