<svg width="50" height="50" viewBox="0 0 50 50" fill="none" xmlns="http://www.w3.org/2000/svg">
<path d="M35.5399 32.3354C36.5145 31.6699 37.6576 31.2939 38.8369 31.2509C40.0163 31.2079 41.1837 31.4997 42.2041 32.0925C43.2246 32.6854 44.0563 33.555 44.6031 34.6008C45.15 35.6466 45.3895 36.8258 45.2941 38.0021C42.7945 38.8757 40.1395 39.2156 37.5004 39C37.4922 36.6388 36.8123 34.3266 35.5399 32.3375C34.4106 30.5662 32.8527 29.1084 31.0104 28.099C29.1682 27.0895 27.101 26.5611 25.0004 26.5625C22.9 26.5614 20.8333 27.09 18.9915 28.0995C17.1496 29.1089 15.592 30.5665 14.4629 32.3375M37.4983 38.9979L37.5004 39.0625C37.5004 39.5312 37.4754 39.9937 37.4233 40.45C33.6428 42.619 29.3589 43.757 25.0004 43.75C20.4795 43.75 16.2358 42.55 12.5774 40.45C12.5239 39.9679 12.4981 39.483 12.5004 38.9979M12.5004 38.9979C9.86208 39.2214 7.2085 38.8827 4.71077 38.0042C4.61567 36.8282 4.85534 35.6494 5.40208 34.6039C5.94882 33.5585 6.78029 32.6892 7.80036 32.0964C8.82043 31.5037 9.98743 31.2118 11.1664 31.2544C12.3454 31.2971 13.4883 31.6726 14.4629 32.3375M12.5004 38.9979C12.5078 36.6369 13.1912 34.3268 14.4629 32.3375M31.2504 14.0625C31.2504 15.7201 30.5919 17.3098 29.4198 18.4819C28.2477 19.654 26.658 20.3125 25.0004 20.3125C23.3428 20.3125 21.753 19.654 20.5809 18.4819C19.4088 17.3098 18.7504 15.7201 18.7504 14.0625C18.7504 12.4049 19.4088 10.8152 20.5809 9.64308C21.753 8.47098 23.3428 7.8125 25.0004 7.8125C26.658 7.8125 28.2477 8.47098 29.4198 9.64308C30.5919 10.8152 31.2504 12.4049 31.2504 14.0625ZM43.7504 20.3125C43.7504 20.9281 43.6291 21.5376 43.3935 22.1063C43.158 22.675 42.8127 23.1918 42.3774 23.6271C41.9421 24.0623 41.4254 24.4076 40.8567 24.6432C40.288 24.8788 39.6784 25 39.0629 25C38.4473 25 37.8377 24.8788 37.269 24.6432C36.7003 24.4076 36.1836 24.0623 35.7483 23.6271C35.313 23.1918 34.9677 22.675 34.7322 22.1063C34.4966 21.5376 34.3754 20.9281 34.3754 20.3125C34.3754 19.0693 34.8692 17.877 35.7483 16.9979C36.6274 16.1189 37.8197 15.625 39.0629 15.625C40.3061 15.625 41.4983 16.1189 42.3774 16.9979C43.2565 17.877 43.7504 19.0693 43.7504 20.3125ZM15.6254 20.3125C15.6254 20.9281 15.5041 21.5376 15.2685 22.1063C15.033 22.675 14.6877 23.1918 14.2524 23.6271C13.8171 24.0623 13.3004 24.4076 12.7317 24.6432C12.163 24.8788 11.5534 25 10.9379 25C10.3223 25 9.71274 24.8788 9.14403 24.6432C8.57531 24.4076 8.05857 24.0623 7.62329 23.6271C7.18802 23.1918 6.84274 22.675 6.60717 22.1063C6.3716 21.5376 6.25036 20.9281 6.25036 20.3125C6.25036 19.0693 6.74422 17.877 7.62329 16.9979C8.50237 16.1189 9.69465 15.625 10.9379 15.625C12.1811 15.625 13.3733 16.1189 14.2524 16.9979C15.1315 17.877 15.6254 19.0693 15.6254 20.3125Z" stroke="#1E1E1E" stroke-width="2" stroke-linecap="round" stroke-linejoin="round"/>
</svg>
