<svg width="50" height="50" viewBox="0 0 50 50" fill="none" xmlns="http://www.w3.org/2000/svg">
<path d="M25 6.4528L14.688 16.7648C8.99288 22.46 8.99288 31.6935 14.688 37.3887C20.3832 43.0839 29.6169 43.0839 35.3119 37.3887C41.0071 31.6935 41.0071 22.46 35.3119 16.7648L25 6.4528ZM25 0.560242L38.2583 13.8185C45.5806 21.1408 45.5806 33.0127 38.2583 40.335C30.9358 47.6573 19.0641 47.6573 11.7418 40.335C4.41942 33.0127 4.41942 21.1408 11.7418 13.8185L25 0.560242ZM14.5833 27.0767H35.4167C35.4167 32.8298 30.7529 37.4933 25 37.4933C19.247 37.4933 14.5833 32.8298 14.5833 27.0767Z" fill="#1E1E1E"/>
</svg>
